<svg width="37" height="56" viewBox="0 0 37 56" fill="none" xmlns="http://www.w3.org/2000/svg">
<path d="M27.4264 43.396H5.01897V45.6555H27.4264V43.396Z" fill="#BC822E"/>
<path d="M33.146 50.1929H17.4546V54.6808H33.146V50.1929Z" fill="#FFCF6D"/>
<path d="M35.2574 55.539L33.2321 55.2274C32.8305 55.1657 32.5341 54.82 32.5341 54.4138V50.4598C32.5341 50.0535 32.8305 49.7079 33.2321 49.6462L35.2574 49.3346C35.7561 49.2579 36.2059 49.6437 36.2059 50.1482V54.7254C36.2059 55.2298 35.7561 55.6157 35.2574 55.539Z" fill="#FACD66"/>
<path d="M36.3033 20.9584C32.581 19.4698 23.9564 18.3549 9.0598 28.6717C8.83985 28.8241 8.53873 28.7811 8.37264 28.5712L6.35344 26.0205C6.18736 25.8106 6.21466 25.5078 6.41329 25.3286C19.8738 13.1979 20.7684 4.54765 20.1738 0.582935C20.0968 0.0693435 20.7495 -0.212888 21.0718 0.194468L36.8872 20.1736C37.2099 20.5808 36.7855 21.1513 36.3033 20.9584Z" fill="#FFCF6D"/>
<path opacity="0.64" d="M8.71323 27.0695C8.54715 26.8597 8.57446 26.5569 8.77309 26.3777C21.7077 14.7211 23.0388 6.27899 22.5955 2.11901L21.072 0.194446C20.7497 -0.212724 20.097 0.0693214 20.174 0.582913C20.7686 4.54763 19.874 13.1979 6.41348 25.3286C6.21467 25.5078 6.18736 25.8106 6.35363 26.0204L8.37284 28.571C8.53892 28.7809 8.83986 28.8239 9.05999 28.6714C9.26049 28.5327 9.45931 28.3969 9.65756 28.262L8.71323 27.0695Z" fill="#FFCF6D"/>
<path d="M6.23861 25.3443C-0.882464 30.9813 -2.08546 41.3238 3.55151 48.4447C9.18849 55.5656 19.531 56.7687 26.6519 51.1318C33.7728 45.4948 34.976 35.1523 29.339 28.0314C23.702 20.9105 13.3595 19.7073 6.23861 25.3443ZM23.8666 47.6131C18.689 51.7118 11.169 50.837 7.07034 45.6594C2.97171 40.4818 3.84646 32.9618 9.02408 28.8631C14.2017 24.7645 21.7217 25.6393 25.8203 30.8169C29.919 35.9945 29.0442 43.5145 23.8666 47.6131Z" fill="#FACD66"/>
<g opacity="0.5">
<path d="M25.4788 30.4072C25.5948 30.5411 25.7093 30.6767 25.8203 30.817C29.919 35.9946 29.0442 43.5146 23.8666 47.6132C19.2869 51.2385 12.8764 50.9701 8.62009 47.2775C12.784 52.0878 20.0375 52.8094 25.075 48.8216C30.2526 44.723 31.1274 37.203 27.0288 32.0252C26.5554 31.4272 26.0345 30.8893 25.4788 30.4072Z" fill="#FACD66"/>
<path d="M4.75993 49.6531C-0.877039 42.5321 0.325953 32.1897 7.44703 26.5528C13.8297 21.5003 22.7981 21.9467 28.6488 27.2206C22.8895 20.8296 13.0791 19.9296 6.23861 25.3443C-0.882464 30.9813 -2.08546 41.3238 3.55151 48.4447C4.13599 49.1829 4.7734 49.8538 5.45008 50.4639C5.21386 50.2019 4.98194 49.9339 4.75993 49.6531Z" fill="#FACD66"/>
</g>
<path d="M21.1891 41.9052H11.5544C8.76841 41.9052 6.50195 39.6385 6.50195 36.8527C6.50195 34.0668 8.7686 31.8002 11.5544 31.8002H21.1891C23.9751 31.8002 26.2415 34.0668 26.2415 36.8527C26.2415 39.6385 23.9751 41.9052 21.1891 41.9052ZM11.5544 34.0595C10.0144 34.0595 8.76149 35.3125 8.76149 36.8525C8.76149 38.3925 10.0144 39.6454 11.5544 39.6454H21.1891C22.7291 39.6454 23.982 38.3925 23.982 36.8525C23.982 35.3125 22.7291 34.0595 21.1891 34.0595H11.5544Z" fill="#FACD66"/>
<g opacity="0.5">
<path d="M10.4639 33.5563C8.92384 33.5563 7.67091 34.8093 7.67091 36.3493C7.67091 37.6869 8.61673 38.8069 9.87433 39.0785C9.1999 38.5681 8.76131 37.7616 8.76131 36.8526C8.76131 35.3126 10.0142 34.0596 11.5543 34.0596H21.1889C21.3912 34.0596 21.5882 34.0825 21.7784 34.1236C21.3102 33.7694 20.7293 33.5565 20.0983 33.5565L10.4639 33.5563Z" fill="#FACD66"/>
<path d="M22.7405 32.0448C24.1855 32.9349 25.1512 34.5314 25.1512 36.3495C25.1512 39.1356 22.8845 41.402 20.0987 41.402H10.4641C9.92297 41.402 9.40171 41.3156 8.91262 41.1574C9.68188 41.6313 10.5867 41.9053 11.5546 41.9053H21.1892C23.9753 41.9053 26.2419 39.6389 26.2419 36.8528C26.2417 34.6077 24.7698 32.7011 22.7405 32.0448Z" fill="#FACD66"/>
</g>
<path d="M13.8454 34.0595H11.5859V47.5855H13.8454V34.0595Z" fill="#A4C7C6"/>
<path d="M17.5408 34.0595H15.2812V47.5855H17.5408V34.0595Z" fill="#A4C7C6"/>
<path d="M21.2362 34.0595H18.9766V47.5855H21.2362V34.0595Z" fill="#A4C7C6"/>
<path d="M21.2362 34.0595H20.1063V47.5855H21.2362V34.0595Z" fill="#A4C7C6"/>
<path d="M17.541 34.0595H16.4111V47.5855H17.541V34.0595Z" fill="#A4C7C6"/>
<path d="M13.8456 34.0595H12.7157V47.5855H13.8456V34.0595Z" fill="#A4C7C6"/>
<path d="M13.4689 48.433H11.9625C11.5986 48.433 11.3034 48.1378 11.3034 47.7738C11.3034 47.4099 11.5986 47.1147 11.9625 47.1147H13.4689C13.8329 47.1147 14.128 47.4099 14.128 47.7738C14.128 48.1378 13.8329 48.433 13.4689 48.433Z" fill="#BC822E"/>
<path d="M17.1643 48.433H15.6579C15.294 48.433 14.9988 48.1378 14.9988 47.7738C14.9988 47.4099 15.294 47.1147 15.6579 47.1147H17.1643C17.5283 47.1147 17.8234 47.4099 17.8234 47.7738C17.8232 48.1378 17.5283 48.433 17.1643 48.433Z" fill="#BC822E"/>
<path d="M20.8595 48.433H19.3531C18.9892 48.433 18.694 48.1378 18.694 47.7738C18.694 47.4099 18.9892 47.1147 19.3531 47.1147H20.8595C21.2235 47.1147 21.5186 47.4099 21.5186 47.7738C21.5186 48.1378 21.2235 48.433 20.8595 48.433Z" fill="#BC822E"/>
</svg>
