<svg width="469" height="222" viewBox="0 0 469 222" fill="none" xmlns="http://www.w3.org/2000/svg">
<g clip-path="url(#clip0_36_339)">
<path d="M100.573 143.324H36.3787V149.797H100.573V143.324Z" fill="#BC822E"/>
<path d="M116.959 162.796H72.0051V175.653H116.959V162.796Z" fill="#FFCF6D"/>
<path d="M123.008 178.112L117.205 177.219C116.055 177.042 115.206 176.052 115.206 174.888V163.56C115.206 162.397 116.055 161.406 117.205 161.23L123.008 160.337C124.436 160.117 125.725 161.223 125.725 162.668V175.781C125.725 177.226 124.436 178.332 123.008 178.112Z" fill="#FACD66"/>
<path d="M126.004 79.0431C115.34 74.7785 90.6317 71.5844 47.955 101.14C47.3249 101.577 46.4622 101.454 45.9864 100.853L40.2017 93.5451C39.7259 92.9439 39.8041 92.0764 40.3731 91.5631C78.9358 56.8102 81.4986 32.0284 79.7952 20.67C79.5745 19.1987 81.4445 18.3901 82.3677 19.5571L127.677 76.7948C128.601 77.9613 127.385 79.5955 126.004 79.0431Z" fill="#FFCF6D"/>
<path opacity="0.64" d="M46.9621 96.5505C46.4863 95.9493 46.5646 95.0818 47.1336 94.5685C84.1895 61.1739 88.0029 36.9885 86.733 25.0707L82.3682 19.5571C81.445 18.3906 79.575 19.1986 79.7957 20.67C81.4991 32.0283 78.9363 56.8101 40.3737 91.5631C39.8041 92.0764 39.7259 92.9439 40.2022 93.5451L45.9869 100.852C46.4628 101.453 47.3249 101.577 47.9556 101.14C48.53 100.742 49.0995 100.353 49.6675 99.9669L46.9621 96.5505Z" fill="#FFCF6D"/>
<path d="M39.8728 91.6081C19.4719 107.757 16.0254 137.387 32.1746 157.788C48.3238 178.188 77.9537 181.635 98.3541 165.486C118.754 149.337 122.201 119.707 106.052 99.3063C89.9031 78.9059 60.2732 75.4589 39.8728 91.6081ZM90.3746 155.405C75.5414 167.147 53.9976 164.641 42.2556 149.808C30.5136 134.975 33.0196 113.431 47.8528 101.689C62.686 89.947 84.2298 92.4531 95.9718 107.286C107.714 122.119 105.208 143.663 90.3746 155.405Z" fill="#FACD66"/>
<g opacity="0.5">
<path d="M94.9934 106.113C95.3256 106.496 95.6536 106.885 95.9718 107.287C107.714 122.12 105.208 143.664 90.3746 155.406C77.2545 165.791 58.8892 165.022 46.6954 154.444C58.6245 168.225 79.4047 170.292 93.8366 158.867C108.67 147.125 111.176 125.582 99.4338 110.748C98.0776 109.035 96.5854 107.494 94.9934 106.113Z" fill="#FACD66"/>
<path d="M35.6366 161.25C19.4874 140.849 22.9338 111.219 43.3347 95.0701C61.6202 80.5953 87.3134 81.8744 104.075 96.9835C87.5755 78.6739 59.47 76.0955 39.8728 91.6081C19.4719 107.757 16.0254 137.387 32.1746 157.788C33.8491 159.902 35.6751 161.824 37.6137 163.572C36.937 162.822 36.2726 162.054 35.6366 161.25Z" fill="#FACD66"/>
</g>
<path d="M82.7038 139.053H55.1019C47.1203 139.053 40.6272 132.559 40.6272 124.578C40.6272 116.597 47.1208 110.103 55.1019 110.103H82.7038C90.6854 110.103 97.1785 116.597 97.1785 124.578C97.1785 132.559 90.6854 139.053 82.7038 139.053ZM55.1019 116.576C50.6899 116.576 47.1005 120.165 47.1005 124.577C47.1005 128.989 50.6899 132.579 55.1019 132.579H82.7038C87.1157 132.579 90.7052 128.989 90.7052 124.577C90.7052 120.165 87.1157 116.576 82.7038 116.576H55.1019Z" fill="#FACD66"/>
<g opacity="0.5">
<path d="M51.9775 115.134C47.5655 115.134 43.9761 118.724 43.9761 123.136C43.9761 126.968 46.6857 130.177 50.2886 130.955C48.3564 129.492 47.0999 127.182 47.0999 124.578C47.0999 120.166 50.6894 116.576 55.1014 116.576H82.7032C83.283 116.576 83.8472 116.642 84.3921 116.76C83.0509 115.745 81.3867 115.135 79.5788 115.135L51.9775 115.134Z" fill="#FACD66"/>
<path d="M87.1484 110.804C91.2882 113.354 94.0547 117.928 94.0547 123.137C94.0547 131.118 87.561 137.611 79.5799 137.611H51.9781C50.428 137.611 48.9346 137.364 47.5334 136.91C49.7373 138.268 52.3296 139.053 55.1025 139.053H82.7043C90.6859 139.053 97.1796 132.56 97.1796 124.578C97.179 118.146 92.9621 112.684 87.1484 110.804Z" fill="#FACD66"/>
</g>
<path d="M61.6652 116.576H55.1919V155.326H61.6652V116.576Z" fill="#A4C7C6"/>
<path d="M72.2521 116.576H65.7788V155.326H72.2521V116.576Z" fill="#A4C7C6"/>
<path d="M82.8387 116.576H76.3655V155.326H82.8387V116.576Z" fill="#A4C7C6"/>
<path d="M82.8388 116.576H79.6019V155.326H82.8388V116.576Z" fill="#A4C7C6"/>
<path d="M72.2525 116.576H69.0156V155.326H72.2525V116.576Z" fill="#A4C7C6"/>
<path d="M61.6659 116.576H58.429V155.326H61.6659V116.576Z" fill="#A4C7C6"/>
<path d="M60.5867 157.754H56.2712C55.2285 157.754 54.3829 156.908 54.3829 155.866C54.3829 154.823 55.2285 153.977 56.2712 153.977H60.5867C61.6294 153.977 62.4749 154.823 62.4749 155.866C62.4749 156.908 61.6294 157.754 60.5867 157.754Z" fill="#BC822E"/>
<path d="M71.1735 157.754H66.858C65.8153 157.754 64.9697 156.908 64.9697 155.866C64.9697 154.823 65.8153 153.977 66.858 153.977H71.1735C72.2162 153.977 73.0617 154.823 73.0617 155.866C73.0612 156.908 72.2162 157.754 71.1735 157.754Z" fill="#BC822E"/>
<path d="M81.7597 157.754H77.4441C76.4014 157.754 75.5559 156.908 75.5559 155.866C75.5559 154.823 76.4014 153.977 77.4441 153.977H81.7597C82.8024 153.977 83.6479 154.823 83.6479 155.866C83.6479 156.908 82.8024 157.754 81.7597 157.754Z" fill="#BC822E"/>
<path d="M168 91V33.72H193.52C199.333 33.72 203.84 35.1333 207.04 37.96C210.507 40.9467 212.24 44.5733 212.24 48.84C212.24 51.2933 211.627 53.4267 210.4 55.24C209.227 57 207.227 58.7867 204.4 60.6C210.693 64.3333 213.84 68.9733 213.84 74.52C213.84 79.5333 211.947 83.64 208.16 86.84C204.853 89.6133 200.053 91 193.76 91H168ZM179.76 43.56V56.52H192.64C198.133 56.52 200.88 54.36 200.88 50.04C200.88 45.72 198.133 43.56 192.64 43.56H179.76ZM179.76 66.36V81.16H193.84C199.653 81.16 202.56 78.7067 202.56 73.8C202.56 68.84 199.653 66.36 193.84 66.36H179.76ZM257.141 79.48H235.701L231.861 91H219.861L240.181 33.72H253.221L273.061 91H260.901L257.141 79.48ZM253.941 69.64L246.501 47.24L238.981 69.64H253.941ZM292.26 68.28V91H280.5V33.72H311.22C316.073 33.72 319.78 35.0267 322.34 37.64C325.22 40.5733 326.66 44.44 326.66 49.24C326.66 56.1733 323.407 60.8933 316.9 63.4C320.58 64.84 322.82 66.6267 323.62 68.76C324.207 70.3067 324.633 75.4533 324.9 84.2C324.953 86.3867 325.78 87.9333 327.38 88.84V91H314.74C313.567 88.8133 312.98 85.5867 312.98 81.32C312.98 80.2533 313.007 78.9467 313.06 77.4C313.06 76.3333 313.06 75.56 313.06 75.08C313.06 70.5467 310.633 68.28 305.78 68.28H292.26ZM292.26 58.44H306.5C309.487 58.44 311.567 57.96 312.74 57C314.18 55.7733 314.9 53.7467 314.9 50.92C314.9 48.2 314.18 46.2533 312.74 45.08C311.513 44.0667 309.433 43.56 306.5 43.56H292.26V58.44ZM336.984 91V33.72H359.384C367.758 33.72 373.784 35.9333 377.464 40.36C382.104 45.9067 384.424 53.24 384.424 62.36C384.424 71.5333 382.104 78.8667 377.464 84.36C373.731 88.7867 367.704 91 359.384 91H336.984ZM348.744 81.16H359.384C368.238 81.16 372.664 74.8933 372.664 62.36C372.664 49.8267 368.238 43.56 359.384 43.56H348.744V81.16ZM168 180V122.72H193.52C199.333 122.72 203.84 124.133 207.04 126.96C210.507 129.947 212.24 133.573 212.24 137.84C212.24 140.293 211.627 142.427 210.4 144.24C209.227 146 207.227 147.787 204.4 149.6C210.693 153.333 213.84 157.973 213.84 163.52C213.84 168.533 211.947 172.64 208.16 175.84C204.853 178.613 200.053 180 193.76 180H168ZM179.76 132.56V145.52H192.64C198.133 145.52 200.88 143.36 200.88 139.04C200.88 134.72 198.133 132.56 192.64 132.56H179.76ZM179.76 155.36V170.16H193.84C199.653 170.16 202.56 167.707 202.56 162.8C202.56 157.84 199.653 155.36 193.84 155.36H179.76ZM235.541 155.36V170.16H266.581V180H223.781V122.72H265.141V132.56H235.541V145.52H262.981V155.36H235.541ZM309.329 168.48H287.889L284.049 180H272.049L292.369 122.72H305.409L325.249 180H313.089L309.329 168.48ZM306.129 158.64L298.689 136.24L291.169 158.64H306.129ZM357.248 132.56V180H345.488V132.56H328.048V122.72H373.888V132.56H357.248ZM422.649 140H411.609C411.235 134.187 407.235 131.28 399.609 131.28C396.569 131.28 394.142 131.893 392.329 133.12C390.569 134.347 389.689 136 389.689 138.08C389.689 140.107 390.435 141.627 391.929 142.64C393.422 143.653 396.302 144.56 400.569 145.36L409.529 147.04C414.809 148.053 418.649 149.787 421.049 152.24C423.449 154.693 424.649 158.16 424.649 162.64C424.649 168.773 422.302 173.44 417.609 176.64C413.555 179.467 408.089 180.88 401.209 180.88C393.369 180.88 387.395 179.067 383.289 175.44C379.715 172.293 377.769 167.92 377.449 162.32H388.889C389.315 168.4 393.609 171.44 401.769 171.44C405.395 171.44 408.222 170.8 410.249 169.52C412.329 168.187 413.369 166.373 413.369 164.08C413.369 161.84 412.542 160.107 410.889 158.88C409.289 157.653 406.515 156.667 402.569 155.92L394.569 154.4C388.755 153.333 384.595 151.653 382.089 149.36C379.635 147.013 378.409 143.653 378.409 139.28C378.409 133.36 380.569 128.88 384.889 125.84C388.622 123.173 393.689 121.84 400.089 121.84C407.822 121.84 413.635 123.6 417.529 127.12C420.889 130.213 422.595 134.507 422.649 140Z" fill="#FFCF6D"/>
</g>
<defs>
<clipPath id="clip0_36_339">
<rect width="469" height="222" fill="white"/>
</clipPath>
</defs>
</svg>
