<svg width="192" height="214" viewBox="0 0 192 214" fill="none" xmlns="http://www.w3.org/2000/svg">
<path d="M182.018 72.0975C182.018 72.0975 153.09 96.4807 183.891 150.955C211.245 199.333 145.877 218.421 118.148 212.207C82.2267 204.157 62.8846 157.333 34.8017 171.336C6.71884 185.339 -18.6389 118.166 22.3049 94.674C73.2377 65.4508 41.6809 46.9774 46.8507 24.7663C50.5607 8.82531 97.1858 -14.8245 121.062 14.0315C141.154 38.3132 151.619 30.0566 161.228 27.1146C175.088 22.8712 204.313 47.4117 182.018 72.0975Z" fill="#DEE9FF"/>
<path d="M152.757 36.3357L90.3363 26.1072C85.7581 25.3571 81.4386 28.4602 80.6885 33.0383L59.0981 164.796C58.3479 169.374 61.4511 173.694 66.0292 174.444L128.45 184.672C133.028 185.422 137.347 182.319 138.097 177.741L159.688 45.9834C160.438 41.4053 157.335 37.0858 152.757 36.3357Z" fill="#0E84E5"/>
<path d="M150.704 40.0491L91.096 30.2815C88.0439 29.7814 85.1643 31.8502 84.6641 34.9023L63.4608 164.298C62.9607 167.351 65.0294 170.23 68.0815 170.73L127.689 180.498C130.741 180.998 133.621 178.929 134.121 175.877L155.324 46.4809C155.824 43.4288 153.756 40.5492 150.704 40.0491Z" fill="#699CFF"/>
<path d="M32.9556 136.342C32.7117 137.19 32.7245 138.09 32.9924 138.93C33.2603 139.77 33.7713 140.512 34.4608 141.062C35.1502 141.611 35.9872 141.944 36.8658 142.018C37.7444 142.092 38.6252 141.904 39.3969 141.477C40.1685 141.05 40.7963 140.405 41.2009 139.621C41.6055 138.838 41.7686 137.952 41.6698 137.076C41.571 136.2 41.2145 135.372 40.6456 134.699C40.0766 134.025 39.3207 133.535 38.4734 133.291C37.3372 132.964 36.1176 133.102 35.0828 133.674C34.0481 134.246 33.2829 135.206 32.9556 136.342Z" fill="#699CFF"/>
<path d="M42.9298 127.043C42.9186 127.227 42.8862 127.41 42.8332 127.587C42.7383 127.917 42.5791 128.225 42.3647 128.493C42.1504 128.761 41.885 128.984 41.5841 129.149C41.2849 129.316 40.9556 129.421 40.6152 129.459C40.2749 129.497 39.9304 129.467 39.602 129.37C38.5247 129.059 37.3967 128.964 36.2826 129.09C35.1685 129.215 34.0901 129.56 33.1092 130.102C32.1282 130.645 31.2639 131.376 30.5658 132.254C29.8677 133.131 29.3494 134.137 29.0406 135.215C28.9456 135.545 28.7865 135.852 28.5727 136.12C28.3589 136.387 28.0944 136.61 27.7943 136.776C27.1883 137.11 26.4743 137.19 25.8094 136.998C25.1444 136.806 24.583 136.358 24.2486 135.752C23.9142 135.146 23.8342 134.432 24.0263 133.767C24.5207 132.03 25.3554 130.408 26.4819 128.996C27.6084 127.584 29.0043 126.41 30.5885 125.542C31.7758 124.883 33.053 124.401 34.3795 124.11L42.9298 127.043Z" fill="#699CFF"/>
<path d="M23.1201 120.259L29.3411 122.392C29.2079 122.45 29.0783 122.517 28.9528 122.59C26.9806 123.672 25.2427 125.135 23.84 126.894C22.4372 128.652 21.3974 130.672 20.7808 132.835C20.6879 133.166 20.5305 133.475 20.3176 133.745C20.1047 134.015 19.8406 134.24 19.5404 134.407C19.2402 134.575 18.9099 134.681 18.5684 134.72C18.227 134.759 17.8812 134.731 17.5509 134.636C17.2206 134.541 16.9123 134.381 16.6438 134.167C16.3753 133.952 16.152 133.687 15.9865 133.385C15.8211 133.084 15.7168 132.753 15.6798 132.411C15.6427 132.07 15.6736 131.724 15.7707 131.394C17.0144 127.014 19.5813 123.125 23.1201 120.259Z" fill="#699CFF"/>
<path d="M45.2057 119.331C45.0129 119.995 44.5655 120.556 43.961 120.891C43.3564 121.227 42.6438 121.309 41.9785 121.122C40.7718 120.771 39.5302 120.554 38.2761 120.475L28.3379 117.077C33.0955 114.992 38.4351 114.646 43.4222 116.1C44.0865 116.293 44.6473 116.741 44.9816 117.347C45.3158 117.953 45.3964 118.666 45.2057 119.331Z" fill="#699CFF"/>
<path d="M13.9717 117.133L19.4225 118.993C16.1397 122.13 13.7531 126.085 12.5091 130.452C12.4143 130.782 12.2551 131.09 12.0408 131.358C11.8264 131.626 11.5612 131.849 11.2602 132.014C10.9623 132.182 10.6338 132.289 10.2942 132.328C9.95449 132.367 9.61042 132.338 9.28214 132.242C8.95258 132.148 8.6448 131.99 8.37641 131.777C8.10802 131.564 7.88429 131.3 7.71804 131C7.55178 130.701 7.44626 130.371 7.40752 130.031C7.36877 129.69 7.39756 129.345 7.49224 129.016C8.74322 124.623 10.9566 120.564 13.9717 117.133Z" fill="#699CFF"/>
<path d="M47.5894 111.06C47.3962 111.724 46.9477 112.284 46.342 112.619C45.7364 112.953 45.023 113.033 44.358 112.843C41.1112 111.899 37.7096 111.609 34.35 111.989C30.9903 112.368 27.7392 113.41 24.7849 115.055C24.4868 115.222 24.1969 115.385 23.9183 115.57L17.806 113.474C21.6792 110.358 26.2446 108.219 31.1174 107.236C35.9903 106.254 41.028 106.457 45.806 107.828C46.4704 108.021 47.0311 108.47 47.3653 109.075C47.6996 109.681 47.7802 110.395 47.5894 111.06Z" fill="#699CFF"/>
<path d="M7.98106 117.492L7.98101 117.492C7.5609 118.719 8.21544 120.055 9.44297 120.475L43.151 132.011C44.3786 132.431 45.7142 131.777 46.1343 130.549L46.1344 130.549C46.5545 129.322 45.8999 127.986 44.6724 127.566L10.9644 116.03C9.73684 115.61 8.40117 116.264 7.98106 117.492Z" fill="#699CFF"/>
<path d="M186.227 26.0536C181.693 24.1592 178.488 25.9765 177.73 27.7903C177.183 29.1005 178.038 30.1681 178.945 30.5471C180.759 31.3048 181.101 28.4096 184.526 29.8409C186.206 30.5425 187.241 31.8429 186.595 33.3881C185.837 35.2021 183.521 35.4576 182.02 35.935C180.695 36.3679 178.843 37.2119 177.636 40.1007C176.907 41.8473 177.166 42.5476 178.543 43.123C180.189 43.8105 180.833 43.2119 181.1 42.5736C181.83 40.8269 182.285 39.8331 184.735 39.1606C185.937 38.8341 189.746 37.7425 191.065 34.5851C192.385 31.4277 190.526 27.8498 186.227 26.0536Z" fill="#0E84E5"/>
<path d="M177.608 45.4548C176.924 45.1781 176.158 45.1823 175.477 45.4665C174.796 45.7507 174.255 46.292 173.97 46.9729C173.686 47.6538 173.681 48.4194 173.958 49.1037C174.234 49.7879 174.769 50.3356 175.447 50.6278C176.132 50.9097 176.901 50.9089 177.585 50.6256C178.27 50.3423 178.814 49.7996 179.1 49.1161C179.385 48.4325 179.389 47.6637 179.109 46.9777C178.83 46.2916 178.29 45.7441 177.608 45.4548Z" fill="#0E84E5"/>
<path d="M100.943 86.2761C101.352 83.7572 100.625 81.5432 99.3191 81.331C98.013 81.1188 96.6224 82.9888 96.2132 85.5077C95.804 88.0266 96.5312 90.2406 97.8373 90.4528C99.1434 90.665 100.534 88.795 100.943 86.2761Z" fill="white"/>
<path d="M128.179 90.7468C128.592 88.2029 127.869 85.9686 126.562 85.7564C125.256 85.5443 123.862 87.4345 123.449 89.9785C123.036 92.5224 123.76 94.7567 125.066 94.9689C126.372 95.1811 127.766 93.2908 128.179 90.7468Z" fill="white"/>
<path d="M117.061 112.677C116.966 112.677 116.872 112.657 116.785 112.62C116.698 112.583 116.619 112.528 116.554 112.459L115.569 111.422C113.989 109.763 111.907 108.669 109.644 108.308C107.382 107.948 105.063 108.34 103.045 109.426L101.787 110.106C101.706 110.149 101.617 110.177 101.526 110.186C101.434 110.196 101.342 110.187 101.254 110.161C101.166 110.134 101.084 110.091 101.012 110.033C100.941 109.975 100.882 109.903 100.838 109.822C100.794 109.742 100.767 109.653 100.758 109.561C100.748 109.47 100.757 109.377 100.783 109.289C100.81 109.201 100.853 109.119 100.911 109.048C100.969 108.977 101.041 108.917 101.121 108.874L102.38 108.194C104.668 106.963 107.298 106.517 109.864 106.926C112.431 107.335 114.791 108.576 116.584 110.457L117.569 111.494C117.663 111.594 117.726 111.718 117.75 111.853C117.774 111.988 117.758 112.127 117.704 112.253C117.65 112.378 117.561 112.486 117.447 112.561C117.332 112.636 117.198 112.676 117.061 112.676V112.677Z" fill="white"/>
</svg>
